<svg width="25" height="14" viewBox="0 0 25 14" fill="none" xmlns="http://www.w3.org/2000/svg">
<path d="M24.7136 6.28108C24.7133 6.28078 24.713 6.28042 24.7127 6.28012L19.61 0.998872C19.2277 0.603235 18.6094 0.604707 18.2289 1.00232C17.8484 1.39989 17.8499 2.04293 18.2321 2.43862L21.6581 5.98437H0.976562C0.437207 5.98437 0 6.43906 0 6.99999C0 7.56092 0.437207 8.01562 0.976562 8.01562H21.6581L18.2322 11.5614C17.8499 11.9571 17.8484 12.6001 18.2289 12.9977C18.6094 13.3953 19.2278 13.3967 19.61 13.0011L24.7127 7.71987C24.713 7.71956 24.7133 7.71921 24.7136 7.7189C25.0961 7.3219 25.0949 6.67677 24.7136 6.28108Z" fill="white"/>
</svg>
