<svg width="25" height="14" viewBox="0 0 25 14" fill="none" xmlns="http://www.w3.org/2000/svg">
<path d="M0.286425 7.71891C0.286717 7.71922 0.286961 7.71957 0.287303 7.71988L5.39004 13.0011C5.77231 13.3968 6.39062 13.3953 6.77114 12.9977C7.15161 12.6001 7.15014 11.9571 6.76787 11.5614L3.34189 8.01563L24.0234 8.01563C24.5628 8.01563 25 7.56094 25 7.00001C25 6.43908 24.5628 5.98438 24.0234 5.98438L3.34194 5.98438L6.76782 2.43863C7.1501 2.04294 7.15156 1.3999 6.77109 1.00234C6.39058 0.604668 5.77222 0.603297 5.38999 0.998882L0.287255 6.28013C0.286961 6.28043 0.286717 6.28079 0.286376 6.28109C-0.0960955 6.6781 -0.0948748 7.32323 0.286425 7.71891Z" fill="white"/>
</svg>
