<svg width="19" height="19" viewBox="0 0 19 19" fill="none" xmlns="http://www.w3.org/2000/svg">
<path d="M13.6222 6.96123C13.3134 6.65208 12.8115 6.65208 12.5027 6.96123L9.10411 10.3595L7.68465 8.9404C7.3759 8.63125 6.87398 8.63125 6.56523 8.9404C6.25609 9.24954 6.25609 9.75067 6.56523 10.0598L8.5444 12.039C8.69878 12.1938 8.90144 12.2709 9.10411 12.2709C9.30678 12.2709 9.50944 12.1938 9.66382 12.039L13.6222 8.08065C13.9313 7.7715 13.9313 7.27038 13.6222 6.96123Z" fill="#B10F1F"/>
<path d="M18.2083 8.70833C17.7713 8.70833 17.4167 9.063 17.4167 9.5C17.4167 13.8653 13.8653 17.4167 9.5 17.4167C5.13475 17.4167 1.58333 13.8653 1.58333 9.5C1.58333 5.13475 5.13475 1.58333 9.5 1.58333C11.6252 1.58333 13.6202 2.41379 15.1181 3.92192C15.4256 4.23265 15.9271 4.23423 16.2375 3.92588C16.5478 3.61792 16.5494 3.11679 16.2414 2.80646C14.4444 0.996708 12.05 0 9.5 0C4.26154 0 0 4.26154 0 9.5C0 14.7385 4.26154 19 9.5 19C14.7385 19 19 14.7385 19 9.5C19 9.063 18.6453 8.70833 18.2083 8.70833Z" fill="#B10F1F"/>
</svg>
