<svg width="36" height="36" viewBox="0 0 36 36" fill="none" xmlns="http://www.w3.org/2000/svg">
<g clip-path="url(#clip0)">
<path d="M36 25.1804C36 20.3725 34.1276 15.8523 30.728 12.4525C27.3281 9.0527 22.808 7.18042 18 7.18042C13.192 7.18042 8.67185 9.05277 5.27203 12.4525C1.87235 15.8523 0 20.3725 0 25.1804V26.2351H14.4152C14.7024 27.1016 15.285 27.8271 16.0786 28.2956C16.6803 28.6508 17.3409 28.8197 17.9936 28.8197C19.2878 28.8197 20.5502 28.1553 21.2544 26.9625C21.3919 26.7295 21.5021 26.4857 21.5861 26.2351H36V25.1804ZM19.438 25.8901C18.97 26.6829 17.9441 26.9474 17.151 26.4792C16.7669 26.2524 16.4941 25.8897 16.3829 25.4577C16.2716 25.0257 16.3351 24.5763 16.562 24.1922C16.7888 23.8081 17.1515 23.5352 17.5835 23.424C17.7224 23.3882 17.8631 23.3706 18.0028 23.3706C18.2977 23.3706 18.5884 23.4493 18.849 23.6032C19.2331 23.8299 19.5059 24.1927 19.6171 24.6247C19.7284 25.0566 19.6649 25.506 19.438 25.8901ZM21.6662 24.1257C21.6639 24.1167 21.6622 24.1075 21.6598 24.0985C21.4984 23.4715 21.1859 22.9096 20.7537 22.4514L23.7846 17.3175L21.9682 16.2451L18.9373 21.379C18.3273 21.222 17.6844 21.2198 17.0573 21.3812C16.0798 21.633 15.2587 22.2504 14.7455 23.1198C14.5575 23.4383 14.4195 23.7768 14.3319 24.1257H2.14397C2.28403 21.999 2.84541 19.9857 3.74358 18.1673L6.08576 19.5196L7.14045 17.6928L4.80087 16.3421C5.95709 14.6211 7.44047 13.1374 9.16151 11.9812L10.5124 14.3209L12.3391 13.2662L10.9865 10.9236C12.8049 10.0254 14.8186 9.46551 16.9452 9.32544V12.032H19.0546V9.32544C21.1813 9.46551 23.195 10.0254 25.0133 10.9236L23.6608 13.2662L25.4875 14.3209L26.8384 11.9812C28.5594 13.1374 30.0427 14.6211 31.199 16.3421L28.8594 17.6928L29.9141 19.5196L32.2563 18.1673C33.1545 19.9857 33.7158 21.999 33.8559 24.1257H21.6662Z" fill="#B10F1F"/>
</g>
<defs>
<clipPath id="clip0">
<rect width="36" height="36" fill="white"/>
</clipPath>
</defs>
</svg>
