<svg width="48" height="48" viewBox="0 0 48 48" fill="none" xmlns="http://www.w3.org/2000/svg">
<path d="M44.3456 27.5356L42.2096 27.1408C42.051 27.1114 41.9358 26.973 41.9358 26.8116V26.6879C43.2692 25.8385 44.1563 24.3481 44.1563 22.6533V21.0564C44.1563 18.42 42.0114 16.2751 39.3751 16.2751C36.7388 16.2751 34.5938 18.42 34.5938 21.0564V22.6533C34.5938 24.3477 35.4805 25.8378 36.8134 26.6873V26.8117C36.8134 26.9731 36.6982 27.1115 36.5394 27.1409L34.4044 27.5356C33.2923 27.7412 32.3408 28.3488 31.6876 29.1909C31.0343 28.3487 30.0829 27.7412 28.9707 27.5356L26.8347 27.1408C26.6761 27.1114 26.5609 26.973 26.5609 26.8116V26.6879C27.8943 25.8385 28.7814 24.3481 28.7814 22.6533V21.0564C28.7814 18.42 26.6365 16.2751 24.0002 16.2751C21.3638 16.2751 19.2189 18.42 19.2189 21.0564V22.6533C19.2189 24.3477 20.1056 25.8378 21.4385 26.6873V26.8117C21.4385 26.9731 21.3232 27.1115 21.1645 27.1409L19.0295 27.5356C17.9174 27.7412 16.9659 28.3488 16.3127 29.1909C15.6594 28.3487 14.708 27.7412 13.5958 27.5356L11.4598 27.1408C11.3012 27.1114 11.186 26.973 11.186 26.8116V26.6879C12.5194 25.8385 13.4065 24.3481 13.4065 22.6533V21.0564C13.4065 18.42 11.2616 16.2751 8.62528 16.2751C5.98894 16.2751 3.84403 18.42 3.84403 21.0564V22.6533C3.84403 24.3477 4.73072 25.8378 6.06356 26.6873V26.8117C6.06356 26.9731 5.94834 27.1115 5.78963 27.1409L3.65456 27.5356C1.53684 27.9271 0 29.7742 0 31.9276V40.8517C0 41.3695 0.419813 41.7892 0.9375 41.7892H47.0625C47.5802 41.7892 48 41.3695 48 40.8517V31.9276C48 29.7742 46.4631 27.9271 44.3456 27.5356ZM8.625 18.1501C9.95944 18.1501 11.0869 19.0543 11.4265 20.2821L10.3723 19.6628C9.97753 19.4308 9.47297 19.5181 9.17887 19.869C8.553 20.6159 7.63509 21.0443 6.66066 21.0443H5.71875C5.72541 19.4474 7.02656 18.1501 8.625 18.1501ZM5.73141 22.9192H6.66056C7.91981 22.9192 9.11888 22.4639 10.0519 21.6491L11.5312 22.5182V22.6533C11.5312 24.2558 10.2276 25.5596 8.625 25.5596C7.11216 25.5596 5.86622 24.3975 5.73141 22.9192ZM9.47409 27.6409L8.62528 28.4613L7.77525 27.6401C7.81041 27.5535 7.84116 27.4649 7.86516 27.3735C8.11275 27.4132 8.36644 27.4345 8.625 27.4345C8.88328 27.4345 9.13659 27.4132 9.38381 27.3736C9.40791 27.4652 9.43884 27.5541 9.47409 27.6409ZM15.3749 39.9141H14.1829H13.8705V33.6809V33.4525C13.8705 32.9347 13.4507 32.515 12.933 32.515C12.4153 32.515 11.9955 32.9347 11.9955 33.4525V33.6809V39.9142H5.2545V33.6809V33.4525C5.2545 32.9347 4.83469 32.515 4.317 32.515C3.79931 32.515 3.3795 32.9347 3.3795 33.4525V33.6809V39.9142H1.875V31.9276C1.875 30.6782 2.76666 29.6066 3.99516 29.3794L6.13022 28.9846C6.22181 28.9677 6.31022 28.9434 6.39703 28.9158L7.68778 30.1629V33.0121C7.68778 33.5298 8.10759 33.9496 8.62528 33.9496C9.14297 33.9496 9.56278 33.5298 9.56278 33.0121V30.1627L10.8527 28.916C10.9393 28.9435 11.0275 28.9677 11.1187 28.9846L13.2547 29.3794C14.4832 29.6065 15.3749 30.6782 15.3749 31.9276V39.9141ZM24 18.1501C25.3344 18.1501 26.4619 19.0543 26.8015 20.2821L25.7473 19.6628C25.3525 19.4308 24.848 19.5181 24.5539 19.869C23.928 20.6159 23.0101 21.0443 22.0357 21.0443H21.0938C21.1004 19.4474 22.4016 18.1501 24 18.1501ZM21.1064 22.9192H22.0356C23.2948 22.9192 24.4939 22.4639 25.4269 21.6491L26.9062 22.5182V22.6533C26.9062 24.2558 25.6026 25.5596 24 25.5596C22.4872 25.5596 21.2412 24.3975 21.1064 22.9192ZM24.8491 27.6409L24.0003 28.4613L23.1502 27.6401C23.1854 27.5535 23.2162 27.4649 23.2402 27.3735C23.4878 27.4132 23.7414 27.4345 24 27.4345C24.2583 27.4345 24.5116 27.4132 24.7588 27.3736C24.7829 27.4652 24.8138 27.5541 24.8491 27.6409ZM30.7499 39.9141H29.5579H29.2455V33.6809V33.4525C29.2455 32.9347 28.8257 32.515 28.308 32.515C27.7903 32.515 27.3705 32.9347 27.3705 33.4525V33.6809V39.9142H20.6295V33.6809V33.4525C20.6295 32.9347 20.2097 32.515 19.692 32.515C19.1743 32.515 18.7545 32.9347 18.7545 33.4525V33.6809V39.9142H17.25V31.9276V31.9276C17.25 30.6782 18.1417 29.6066 19.3702 29.3794L21.5052 28.9846C21.5968 28.9677 21.6852 28.9434 21.772 28.9158L23.0625 30.1625V33.0121C23.0625 33.5298 23.4823 33.9496 24 33.9496C24.5177 33.9496 24.9375 33.5298 24.9375 33.0121V30.1631L26.2277 28.916C26.3143 28.9435 26.4025 28.9677 26.4938 28.9846L28.6297 29.3794C29.8582 29.6065 30.7499 30.6782 30.7499 31.9276V39.9141ZM39.375 18.1501C40.7094 18.1501 41.8369 19.0543 42.1765 20.2821L41.1223 19.6628C40.7276 19.4308 40.223 19.5181 39.9289 19.869C39.303 20.6159 38.3851 21.0443 37.4107 21.0443H36.4688C36.4754 19.4474 37.7766 18.1501 39.375 18.1501ZM36.4814 22.9192H37.4106C38.6698 22.9192 39.8689 22.4639 40.8019 21.6491L42.2812 22.5182V22.6533C42.2812 24.2558 40.9776 25.5596 39.375 25.5596C37.8622 25.5596 36.6162 24.3975 36.4814 22.9192ZM40.2241 27.6409L39.3753 28.4613L38.5252 27.6401C38.5604 27.5535 38.5912 27.4649 38.6152 27.3735C38.8627 27.4132 39.1164 27.4345 39.375 27.4345C39.6333 27.4345 39.8866 27.4132 40.1338 27.3736C40.1579 27.4652 40.1888 27.5541 40.2241 27.6409ZM46.1249 39.9141H45.4876H44.6205V33.6809V33.4525C44.6205 32.9347 44.2007 32.515 43.683 32.515C43.1653 32.515 42.7455 32.9347 42.7455 33.4525V33.6809V39.9142H36.0045V33.6809V33.4525C36.0045 32.9347 35.5847 32.515 35.067 32.515C34.5493 32.515 34.1295 32.9347 34.1295 33.4525V33.6809V39.9142H33.7266H32.625V31.9276V31.9276C32.625 30.6782 33.5167 29.6066 34.7452 29.3794L36.8802 28.9846C36.9718 28.9677 37.0602 28.9434 37.147 28.9158L38.6695 30.3868V33.0121C38.6695 33.5298 39.0893 33.9496 39.607 33.9496C40.1247 33.9496 40.5445 33.5298 40.5445 33.0121V29.9387L41.6027 28.916C41.6893 28.9435 41.7775 28.9677 41.8688 28.9846L44.0047 29.3794C45.2332 29.6065 46.1249 30.6782 46.1249 31.9276V39.9141Z" fill="#B10F1F"/>
<path d="M16.3125 6.21082C13.6762 6.21082 11.5312 8.35563 11.5312 10.9921V12.589C11.5312 15.2254 13.6762 17.3703 16.3125 17.3703C18.9488 17.3703 21.0938 15.2254 21.0938 12.589V10.9921C21.0938 8.35563 18.9488 6.21082 16.3125 6.21082ZM16.3125 8.08582C17.6469 8.08582 18.7744 8.98994 19.114 10.2178L18.0598 9.59847C17.665 9.36654 17.1605 9.45372 16.8664 9.80463C16.2405 10.5515 15.3226 10.98 14.3482 10.98H13.4062C13.4129 9.38304 14.7141 8.08582 16.3125 8.08582ZM19.2188 12.589C19.2188 14.1915 17.9151 15.4953 16.3125 15.4953C14.7997 15.4953 13.5537 14.3331 13.4189 12.8549H14.3481C15.6073 12.8549 16.8064 12.3995 17.7394 11.5848L19.2188 12.4539V12.589Z" fill="#B10F1F"/>
<path d="M31.6875 6.21082C29.0512 6.21082 26.9062 8.35563 26.9062 10.9921V12.589C26.9062 15.2254 29.0512 17.3703 31.6875 17.3703C34.3238 17.3703 36.4688 15.2254 36.4688 12.589V10.9921C36.4688 8.35563 34.3238 6.21082 31.6875 6.21082ZM31.6875 8.08582C33.0219 8.08582 34.1494 8.98994 34.489 10.2178L33.4348 9.59847C33.0401 9.36654 32.5355 9.45372 32.2414 9.80463C31.6155 10.5515 30.6976 10.98 29.7232 10.98H28.7812C28.7879 9.38304 30.0891 8.08582 31.6875 8.08582ZM34.5938 12.589C34.5938 14.1915 33.2901 15.4953 31.6875 15.4953C30.1747 15.4953 28.9287 14.3331 28.7939 12.8549H29.7231C30.9823 12.8549 32.1814 12.3995 33.1144 11.5848L34.5938 12.4539V12.589Z" fill="#B10F1F"/>
<path d="M16.3125 18.9409C15.7948 18.9409 15.375 19.3606 15.375 19.8784V23.1329C15.375 23.6507 15.7948 24.0704 16.3125 24.0704C16.8302 24.0704 17.25 23.6507 17.25 23.1329V19.8784C17.25 19.3606 16.8302 18.9409 16.3125 18.9409Z" fill="#B10F1F"/>
<path d="M16.9752 25.4655C16.8009 25.2902 16.5591 25.1908 16.3125 25.1908C16.0659 25.1908 15.8241 25.2902 15.6497 25.4655C15.4753 25.6399 15.375 25.8817 15.375 26.1283C15.375 26.3749 15.4752 26.6167 15.6497 26.7911C15.8241 26.9655 16.0659 27.0658 16.3125 27.0658C16.5591 27.0658 16.8009 26.9655 16.9752 26.7911C17.1496 26.6167 17.25 26.3749 17.25 26.1283C17.25 25.8817 17.1497 25.6399 16.9752 25.4655Z" fill="#B10F1F"/>
<path d="M31.6875 21.9359C31.1698 21.9359 30.75 22.3556 30.75 22.8734V26.1279C30.75 26.6457 31.1698 27.0654 31.6875 27.0654C32.2052 27.0654 32.625 26.6457 32.625 26.1279V22.8734C32.625 22.3556 32.2052 21.9359 31.6875 21.9359Z" fill="#B10F1F"/>
<path d="M32.3502 19.215C32.1759 19.0407 31.9341 18.9413 31.6875 18.9413C31.4409 18.9413 31.1991 19.0407 31.0247 19.215C30.8503 19.3903 30.75 19.6313 30.75 19.8778C30.75 20.1253 30.8502 20.3672 31.0247 20.5407C31.1991 20.716 31.4409 20.8153 31.6875 20.8153C31.9341 20.8153 32.1759 20.716 32.3502 20.5407C32.5246 20.3663 32.625 20.1253 32.625 19.8778C32.625 19.6313 32.5247 19.3903 32.3502 19.215Z" fill="#B10F1F"/>
</svg>
