<svg width="34" height="34" viewBox="0 0 34 34" fill="none" xmlns="http://www.w3.org/2000/svg">
<path d="M6.97266 17.9961C5.32492 17.9961 3.98438 19.3366 3.98438 20.9844C3.98438 22.6321 5.32492 23.9727 6.97266 23.9727C8.62039 23.9727 9.96094 22.6321 9.96094 20.9844C9.96094 19.3366 8.62039 17.9961 6.97266 17.9961ZM6.97266 21.9805C6.42341 21.9805 5.97656 21.5336 5.97656 20.9844C5.97656 20.4351 6.42341 19.9883 6.97266 19.9883C7.5219 19.9883 7.96875 20.4351 7.96875 20.9844C7.96875 21.5336 7.5219 21.9805 6.97266 21.9805Z" fill="#B10F1F"/>
<path d="M29.0195 21.9805H27.8521C27.4409 20.8211 26.3337 19.9883 25.0352 19.9883C23.7366 19.9883 22.6294 20.8211 22.2182 21.9805H20.0547C18.9562 21.9805 18.0625 21.0868 18.0625 19.9883C18.0625 18.8898 18.9562 17.9961 20.0547 17.9961H27.0273C27.3417 17.9961 27.6433 17.8419 27.8271 17.5937L32.6083 11.1531C33.5188 9.93935 34 8.49376 34 6.97266C34 3.12793 30.8721 0 27.0273 0C23.1826 0 20.0547 3.12793 20.0547 6.97266C20.0547 8.49283 20.5353 9.93756 21.4448 11.1509L25.0474 16.0039H20.0547C17.8577 16.0039 16.0703 17.7913 16.0703 19.9883C16.0703 22.1853 17.8577 23.9727 20.0547 23.9727H22.2182C22.6294 25.132 23.7366 25.9648 25.0352 25.9648C26.3337 25.9648 27.4409 25.132 27.8521 23.9727H29.0195C30.6673 23.9727 32.0078 25.3132 32.0078 26.9609C32.0078 28.6168 30.6394 30.0156 29.0195 30.0156H21.8755C21.4644 28.8563 20.3572 28.0234 19.0586 28.0234C17.76 28.0234 16.6528 28.8563 16.2416 30.0156H8.95262L12.5536 25.1648C13.4641 23.9511 13.9453 22.5055 13.9453 20.9844C13.9453 17.1397 10.8174 14.0117 6.97266 14.0117C3.12793 14.0117 0 17.1397 0 20.9844C0 22.5055 0.481246 23.9511 1.38875 25.1608L6.15905 31.5869C6.33881 31.8412 6.63797 32.0079 6.97186 32.0079C6.97558 32.0079 6.97923 32.0079 6.98302 32.0078H16.2416C16.6528 33.1671 17.76 34 19.0586 34C20.3572 34 21.4644 33.1671 21.8755 32.0078H29.0195C30.3501 32.0078 31.6037 31.4751 32.5492 30.5078C33.4848 29.5507 34 28.2911 34 26.9609C34 24.2147 31.7658 21.9805 29.0195 21.9805ZM23.043 9.9616C23.042 9.96027 23.0411 9.95895 23.04 9.95762C22.3903 9.09148 22.0469 8.05926 22.0469 6.97266C22.0469 4.22643 24.2811 1.99219 27.0273 1.99219C29.7736 1.99219 32.0078 4.22643 32.0078 6.97266C32.0078 8.05926 31.6644 9.09148 31.0117 9.9616L27.0273 15.3288L23.043 9.9616ZM25.0352 23.9727C24.4859 23.9727 24.0391 23.5258 24.0391 22.9766C24.0391 22.4273 24.4859 21.9805 25.0352 21.9805C25.5844 21.9805 26.0312 22.4273 26.0312 22.9766C26.0312 23.5258 25.5844 23.9727 25.0352 23.9727ZM6.97266 29.3405L2.98536 23.9693C2.33564 23.1032 1.99219 22.071 1.99219 20.9844C1.99219 18.2381 4.22643 16.0039 6.97266 16.0039C9.71889 16.0039 11.9531 18.2381 11.9531 20.9844C11.9531 22.071 11.6097 23.1032 10.957 23.9733L6.97266 29.3405ZM19.0586 32.0078C18.5093 32.0078 18.0625 31.561 18.0625 31.0117C18.0625 30.4625 18.5093 30.0156 19.0586 30.0156C19.6078 30.0156 20.0547 30.4625 20.0547 31.0117C20.0547 31.561 19.6078 32.0078 19.0586 32.0078Z" fill="#B10F1F"/>
<path d="M27.0273 3.98438C25.3796 3.98438 24.0391 5.32492 24.0391 6.97266C24.0391 8.62039 25.3796 9.96094 27.0273 9.96094C28.6751 9.96094 30.0156 8.62039 30.0156 6.97266C30.0156 5.32492 28.6751 3.98438 27.0273 3.98438ZM27.0273 7.96875C26.4781 7.96875 26.0312 7.5219 26.0312 6.97266C26.0312 6.42341 26.4781 5.97656 27.0273 5.97656C27.5766 5.97656 28.0234 6.42341 28.0234 6.97266C28.0234 7.5219 27.5766 7.96875 27.0273 7.96875Z" fill="#B10F1F"/>
</svg>
