<svg width="45" height="45" viewBox="0 0 45 45" fill="none" xmlns="http://www.w3.org/2000/svg">
<path d="M22.5 0C14.2291 0 7.49997 6.72917 7.49997 15C7.49997 17.4829 8.12074 19.9448 9.30085 22.1283L21.6797 44.5166C21.8445 44.8151 22.1585 45 22.5 45C22.8415 45 23.1555 44.8151 23.3203 44.5166L35.7037 22.1209C36.8793 19.9448 37.5 17.4829 37.5 14.9999C37.5 6.72917 30.7709 0 22.5 0ZM22.5 22.5C18.3646 22.5 15 19.1355 15 15C15 10.8646 18.3646 7.50006 22.5 7.50006C26.6354 7.50006 30 10.8646 30 15C30 19.1355 26.6354 22.5 22.5 22.5Z" fill="#B10F1F"/>
</svg>
