<svg width="18" height="18" viewBox="0 0 18 18" fill="none" xmlns="http://www.w3.org/2000/svg">
<path d="M15.9328 13.5795L13.3073 10.9539C12.7608 10.4075 11.8747 10.4068 11.3275 10.9539L10.5629 11.7186C8.81575 10.6516 7.34791 9.18377 6.28092 7.43662L7.11933 6.59825C7.66509 6.05242 7.66509 5.16427 7.11929 4.61843L4.49376 1.9929C3.94877 1.44798 3.06393 1.44292 2.51233 1.99455L0.862449 3.65726C0.0730532 4.3201 -0.20461 5.40839 0.155389 6.43984C2.0027 11.7335 6.26602 15.9968 11.5597 17.8441C12.5557 18.1916 13.5784 17.9317 14.2287 17.2618C14.2381 17.2535 14.2473 17.2449 14.2562 17.2359L15.9328 15.5593C16.4787 15.0135 16.4787 14.1254 15.9328 13.5795ZM15.0965 14.7229L13.4578 16.3616C13.4378 16.3782 13.4189 16.3962 13.4011 16.4156C13.0561 16.7905 12.5013 16.92 11.9495 16.7273C6.99322 14.9978 3.00177 11.0063 1.27223 6.05003C1.07419 5.48257 1.21707 4.89466 1.63624 4.5522C1.65216 4.53919 1.66742 4.52534 1.6819 4.51075L3.35038 2.82927C3.40568 2.77393 3.47033 2.76567 3.50391 2.76567C3.53751 2.76567 3.6021 2.7739 3.65743 2.82927L6.28289 5.4548C6.36755 5.53945 6.36755 5.67716 6.28293 5.76182L5.12126 6.92348C4.9335 7.11121 4.89387 7.40101 5.0243 7.63226C6.28493 9.8671 8.13242 11.7147 10.3673 12.9752C10.5985 13.1057 10.8883 13.066 11.076 12.8783L12.164 11.7904C12.2486 11.7057 12.3861 11.7056 12.471 11.7904L15.0965 14.4159C15.1811 14.5005 15.1811 14.6383 15.0965 14.7229Z" fill="white"/>
<path d="M9.45349 4.61694C9.12686 4.61694 8.86206 4.88174 8.86206 5.20837C8.86206 5.53501 9.12682 5.79981 9.45349 5.79981C10.9682 5.79981 12.2006 7.03213 12.2006 8.54687C12.2006 8.87351 12.4654 9.1383 12.792 9.1383C13.1186 9.1383 13.3834 8.87351 13.3834 8.54687C13.3834 6.37992 11.6204 4.61694 9.45349 4.61694Z" fill="white"/>
<path d="M9.45349 2.29492C9.12686 2.29492 8.86206 2.55972 8.86206 2.88635C8.86206 3.21299 9.12682 3.47779 9.45349 3.47779C12.2482 3.47779 14.5218 5.75144 14.5218 8.54614C14.5218 8.87278 14.7866 9.13757 15.1133 9.13757C15.4399 9.13757 15.7047 8.87278 15.7047 8.54614C15.7047 5.09922 12.9004 2.29492 9.45349 2.29492Z" fill="white"/>
<path d="M15.4968 2.50315C13.8826 0.888958 11.7363 0 9.45349 0C9.12686 0 8.86206 0.264796 8.86206 0.591432C8.86206 0.918067 9.12686 1.18286 9.45349 1.18286C13.5138 1.18286 16.8171 4.48613 16.8171 8.54642C16.8171 8.87306 17.0819 9.13785 17.4085 9.13785C17.7352 9.13785 17.9999 8.87306 17.9999 8.54642C17.9999 6.26356 17.111 4.11738 15.4968 2.50315Z" fill="white"/>
</svg>
