<svg width="38" height="38" viewBox="0 0 38 38" fill="none" xmlns="http://www.w3.org/2000/svg">
<path d="M16.7734 33.1016H21.2266C21.6364 33.1016 21.9688 32.7693 21.9688 32.3594V28.6484H25.6797C26.0895 28.6484 26.4219 28.3162 26.4219 27.9062V23.4531C26.4219 23.0432 26.0895 22.7109 25.6797 22.7109H21.9688V19C21.9688 18.5901 21.6364 18.2578 21.2266 18.2578H16.7734C16.3635 18.2578 16.0312 18.5901 16.0312 19V22.7109H12.3203C11.9104 22.7109 11.5781 23.0432 11.5781 23.4531V27.9062C11.5781 28.3162 11.9104 28.6484 12.3203 28.6484H16.0312V32.3594C16.0312 32.7693 16.3635 33.1016 16.7734 33.1016ZM13.0625 27.1641V24.1953H16.7734C17.1833 24.1953 17.5156 23.863 17.5156 23.4531V19.7422H20.4844V23.4531C20.4844 23.863 20.8167 24.1953 21.2266 24.1953H24.9375V27.1641H21.2266C20.8167 27.1641 20.4844 27.4963 20.4844 27.9062V31.6172H17.5156V27.9062C17.5156 27.4963 17.1833 27.1641 16.7734 27.1641H13.0625Z" fill="#41434A"/>
<path d="M19 38C19.4099 38 19.7422 37.6677 19.7422 37.2578C19.7422 36.8479 19.4099 36.5156 19 36.5156C18.5901 36.5156 18.2578 36.8479 18.2578 37.2578C18.2578 37.6677 18.5901 38 19 38Z" fill="#41434A"/>
<path d="M2.96875 38H15.6602C16.0701 38 16.4023 37.6677 16.4023 37.2578C16.4023 36.8479 16.0701 36.5156 15.6602 36.5156H2.96875C2.15027 36.5156 1.48438 35.8497 1.48438 35.0312V15.2891H4.45312V19C4.45312 19.4099 4.7854 19.7422 5.19531 19.7422H9.64844C10.0583 19.7422 10.3906 19.4099 10.3906 19V15.2891H27.6094V19C27.6094 19.4099 27.9417 19.7422 28.3516 19.7422H32.8047C33.2145 19.7422 33.5469 19.4099 33.5469 19V15.2891H36.5156V35.0312C36.5156 35.8497 35.8497 36.5156 35.0312 36.5156H22.3398C21.93 36.5156 21.5977 36.8479 21.5977 37.2578C21.5977 37.6677 21.93 38 22.3398 38H35.0312C36.6682 38 38 36.6682 38 35.0312V10.0938C38 8.45678 36.6682 7.125 35.0312 7.125H28.6484V2.96875C28.6484 1.33178 27.3167 0 25.6797 0H12.3203C10.6833 0 9.35156 1.33178 9.35156 2.96875V7.125H2.96875C1.33178 7.125 0 8.45678 0 10.0938V35.0312C0 36.6682 1.33178 38 2.96875 38ZM8.90625 18.2578H5.9375V15.2891H8.90625V18.2578ZM32.0625 18.2578H29.0938V15.2891H32.0625V18.2578ZM10.8359 2.96875C10.8359 2.15027 11.5018 1.48438 12.3203 1.48438H25.6797C26.4982 1.48438 27.1641 2.15027 27.1641 2.96875V7.125H10.8359V2.96875ZM2.96875 8.60938H35.0312C35.8497 8.60938 36.5156 9.27527 36.5156 10.0938V13.8047H1.48438V10.0938C1.48438 9.27527 2.15027 8.60938 2.96875 8.60938Z" fill="#41434A"/>
</svg>
