<svg width="46" height="46" viewBox="0 0 46 46" fill="none" xmlns="http://www.w3.org/2000/svg">
<path d="M35.2188 35.2188H42.4062V36.6562H35.2188V35.2188Z" fill="#41434A"/>
<path d="M38.0938 38.0938H39.5312V39.5312H38.0938V38.0938Z" fill="#41434A"/>
<path d="M40.9688 38.0938H42.4062V39.5312H40.9688V38.0938Z" fill="#41434A"/>
<path d="M35.2188 38.0938H36.6562V39.5312H35.2188V38.0938Z" fill="#41434A"/>
<path d="M3.59375 6.46875H10.7812V7.90625H3.59375V6.46875Z" fill="#41434A"/>
<path d="M9.34375 9.34375H10.7812V10.7812H9.34375V9.34375Z" fill="#41434A"/>
<path d="M3.59375 9.34375H5.03125V10.7812H3.59375V9.34375Z" fill="#41434A"/>
<path d="M6.46875 9.34375H7.90625V10.7812H6.46875V9.34375Z" fill="#41434A"/>
<path d="M35.2188 25.6802V20.8438H43.125C44.3138 20.8438 45.2812 19.8763 45.2812 18.6875V2.875C45.2812 1.68619 44.3138 0.71875 43.125 0.71875H24.4375C23.2487 0.71875 22.2812 1.68619 22.2812 2.875V7.90625H13.6562V3.59375H0.71875V13.6562H13.6562V9.34375H22.2812V10.7812H20.3198L19.6902 12.7463C19.1353 12.9246 18.5984 13.1459 18.0881 13.4068L16.256 12.4638L12.4653 16.2545L13.4083 18.0866C13.1481 18.5962 12.9267 19.1324 12.7478 19.6887L10.7812 20.3198V25.1562H2.875C1.68619 25.1562 0.71875 26.1237 0.71875 27.3125V43.125C0.71875 44.3138 1.68619 45.2812 2.875 45.2812H21.5625C22.7513 45.2812 23.7188 44.3138 23.7188 43.125V38.0938H32.3438V42.4062H45.2812V32.3438H32.3438V36.6562H23.7188V35.2188H25.6802L26.3098 33.2537C26.8654 33.0747 27.4023 32.8541 27.9119 32.5932L29.744 33.5362L33.5347 29.7455L32.5917 27.9134C32.8519 27.4038 33.0733 26.8676 33.2523 26.3113L35.2188 25.6802ZM12.2188 12.2188H2.15625V5.03125H12.2188V12.2188ZM33.7812 33.7812H43.8438V40.9688H33.7812V33.7812ZM29.4688 23C29.4688 26.3235 26.9481 29.0677 23.7188 29.4263V27.3125C23.7188 26.1237 22.7513 25.1562 21.5625 25.1562H16.9064C16.6621 24.4662 16.5312 23.7439 16.5312 23C16.5312 19.6765 19.0519 16.9323 22.2812 16.5737V18.6875C22.2812 19.8763 23.2487 20.8438 24.4375 20.8438H29.0936C29.3379 21.5338 29.4688 22.2561 29.4688 23ZM28.8075 19.4062C29.0512 17.715 30.1357 16.2969 31.625 15.5861V15.8125C31.625 17.0013 32.5924 17.9688 33.7812 17.9688C34.9701 17.9688 35.9375 17.0013 35.9375 15.8125V15.5861C37.4268 16.2969 38.5113 17.715 38.755 19.4062H28.8075ZM30.1875 8.34109C30.1875 6.91222 31.3497 5.75 32.7786 5.75H33.0625V7.46206L31.3792 8.30372C30.9314 8.52797 30.5886 8.89094 30.388 9.32578C30.2601 9.01456 30.1875 8.6825 30.1875 8.34109ZM33.0625 15.1512C33.2982 15.1175 33.5369 15.0938 33.7812 15.0938C34.0256 15.0938 34.2643 15.1175 34.5 15.1512V15.8125C34.5 16.2085 34.178 16.5312 33.7812 16.5312C33.3845 16.5312 33.0625 16.2085 33.0625 15.8125V15.1512ZM37.1745 9.32506C36.9739 8.89022 36.6311 8.52725 36.1833 8.303L34.5 7.46206V5.75H34.7839C36.2128 5.75 37.375 6.91222 37.375 8.34109C37.375 8.6825 37.3031 9.01456 37.1745 9.32506ZM33.0625 13.6562C32.2697 13.6562 31.625 13.0115 31.625 12.2188V10.2321C31.625 9.95828 31.7774 9.71175 32.0225 9.58956L33.7812 8.70981L35.54 9.58956C35.7851 9.71175 35.9375 9.95828 35.9375 10.2321V12.2188C35.9375 13.0115 35.2928 13.6562 34.5 13.6562H33.0625ZM23.7188 2.875C23.7188 2.47897 24.0408 2.15625 24.4375 2.15625H43.125C43.5218 2.15625 43.8438 2.47897 43.8438 2.875V18.6875C43.8438 19.0835 43.5218 19.4062 43.125 19.4062H40.2076C39.9539 17.1249 38.5085 15.2037 36.5103 14.2686C37.0429 13.7461 37.375 13.0216 37.375 12.2188V11.7178L38.1362 10.5764C38.5789 9.91228 38.8125 9.13891 38.8125 8.34181C38.8125 6.12016 37.0048 4.3125 34.7839 4.3125H32.7793C30.5577 4.3125 28.75 6.12016 28.75 8.34109C28.75 9.13891 28.9836 9.91156 29.4263 10.5757L30.1875 11.7178V12.2188C30.1875 13.0216 30.5196 13.7461 31.0522 14.2686C29.054 15.2037 27.6086 17.1249 27.3549 19.4062H24.4375C24.0408 19.4062 23.7188 19.0835 23.7188 18.6875V2.875ZM12.2188 21.3677L13.9121 20.8251L14.0171 20.4535C14.2183 19.7426 14.4972 19.067 14.8451 18.4438L15.0341 18.1075L14.2219 16.5298L16.5305 14.2219L18.1075 15.0334L18.4446 14.8451C19.0699 14.495 19.7462 14.2162 20.4549 14.0163L20.8265 13.9114L21.3677 12.2188H22.2812V15.1304C18.2577 15.4948 15.0938 18.883 15.0938 23C15.0938 23.7382 15.2023 24.4583 15.3999 25.1562H12.2188V21.3677ZM7.90625 37.375V33.7812C7.90625 31.6487 9.46378 29.8777 11.5 29.5334V31.1808L9.81669 32.0225C9.08212 32.3898 8.625 33.1286 8.625 33.9509V35.9375C8.625 36.7403 8.95706 37.4648 9.48966 37.9874C9.08716 38.1757 8.70766 38.4043 8.35547 38.668C8.06941 38.2972 7.90625 37.8487 7.90625 37.375ZM11.5 37.375C10.7072 37.375 10.0625 36.7303 10.0625 35.9375V33.9509C10.0625 33.677 10.2149 33.4305 10.46 33.3083L12.2188 32.4286L13.9775 33.3083C14.2226 33.4305 14.375 33.677 14.375 33.9509V35.9375C14.375 36.7303 13.7303 37.375 12.9375 37.375H11.5ZM12.2188 38.8125C12.7952 38.8125 13.3465 38.9146 13.8625 39.0935L13.3486 40.25H11.0889L10.575 39.0935C11.091 38.9146 11.6423 38.8125 12.2188 38.8125ZM12.7097 41.6875L12.2188 42.7922L11.7278 41.6875H12.7097ZM15.1412 39.7562C16.4155 40.6705 17.25 42.1597 17.25 43.8438H13.3249L15.1412 39.7562ZM16.5312 37.375C16.5312 37.8487 16.3681 38.2972 16.082 38.6673C15.7298 38.4035 15.3503 38.1757 14.9478 37.9867C15.4804 37.4648 15.8125 36.7403 15.8125 35.9375V33.9509C15.8125 33.1286 15.3554 32.3905 14.6208 32.0225L12.9375 31.1808V29.5334C14.9737 29.877 16.5312 31.648 16.5312 33.7812V37.375ZM9.29631 39.7562L11.1126 43.8438H7.1875C7.1875 42.1597 8.02197 40.6705 9.29631 39.7562ZM22.2812 43.125C22.2812 43.521 21.9592 43.8438 21.5625 43.8438H18.6875C18.6875 42.246 18.1024 40.7848 17.1386 39.6549C17.6719 39.0166 17.9688 38.2188 17.9688 37.375V33.7812C17.9688 30.6108 15.3892 28.0312 12.2188 28.0312C9.04834 28.0312 6.46875 30.6108 6.46875 33.7812V37.375C6.46875 38.2188 6.76559 39.0166 7.29891 39.6549C6.33506 40.7848 5.75 42.246 5.75 43.8438H2.875C2.47825 43.8438 2.15625 43.521 2.15625 43.125V27.3125C2.15625 26.9165 2.47825 26.5938 2.875 26.5938H21.5625C21.9592 26.5938 22.2812 26.9165 22.2812 27.3125V43.125ZM32.0879 25.1742L31.9829 25.5458C31.7817 26.2567 31.5028 26.9323 31.1549 27.5554L30.9659 27.8918L31.7781 29.4695L29.4695 31.7774L27.8918 30.9659L27.5554 31.1542C26.9316 31.5035 26.2552 31.7831 25.5451 31.9829L25.1735 32.0879L24.6323 33.7812H23.7188V30.8696C27.7423 30.5052 30.9062 27.117 30.9062 23C30.9062 22.2618 30.7977 21.5417 30.6001 20.8438H33.7812V24.6323L32.0879 25.1742Z" fill="#41434A"/>
<path d="M3.59375 28.0312H5.03125V29.4688H3.59375V28.0312Z" fill="#41434A"/>
<path d="M19.4062 28.0312H20.8438V29.4688H19.4062V28.0312Z" fill="#41434A"/>
<path d="M25.1562 3.59375H26.5938V5.03125H25.1562V3.59375Z" fill="#41434A"/>
<path d="M40.9688 3.59375H42.4062V5.03125H40.9688V3.59375Z" fill="#41434A"/>
</svg>
