<svg width="19" height="19" viewBox="0 0 19 19" fill="none" xmlns="http://www.w3.org/2000/svg"><path d="M13.622 6.961a.792.792 0 00-1.12 0L9.105 10.36l-1.42-1.42a.791.791 0 10-1.119 1.12l1.98 1.979a.788.788 0 001.119 0l3.958-3.958a.79.79 0 000-1.12z" fill="#B10F1F"/><path d="M18.208 8.708a.792.792 0 00-.791.792c0 4.365-3.552 7.917-7.917 7.917S1.583 13.865 1.583 9.5 5.135 1.583 9.5 1.583c2.125 0 4.12.83 5.618 2.339a.79.79 0 101.123-1.116A9.435 9.435 0 009.5 0C4.262 0 0 4.262 0 9.5 0 14.739 4.262 19 9.5 19c5.239 0 9.5-4.261 9.5-9.5a.792.792 0 00-.792-.792z" fill="#B10F1F"/></svg>