<svg width="48" height="48" viewBox="0 0 48 48" fill="none" xmlns="http://www.w3.org/2000/svg"><path d="M44.346 27.536l-2.136-.395a.335.335 0 01-.274-.33v-.123a4.78 4.78 0 002.22-4.035v-1.597a4.787 4.787 0 00-4.78-4.78 4.787 4.787 0 00-4.782 4.78v1.597a4.78 4.78 0 002.22 4.034v.125c0 .161-.116.3-.275.329l-2.135.395a4.458 4.458 0 00-2.716 1.655 4.458 4.458 0 00-2.717-1.655l-2.136-.395a.335.335 0 01-.274-.33v-.123a4.78 4.78 0 002.22-4.035v-1.597a4.787 4.787 0 00-4.78-4.78 4.787 4.787 0 00-4.782 4.78v1.597a4.78 4.78 0 002.22 4.034v.125c0 .161-.116.3-.274.329l-2.136.395a4.458 4.458 0 00-2.716 1.655 4.458 4.458 0 00-2.717-1.655l-2.136-.395a.335.335 0 01-.274-.33v-.123a4.78 4.78 0 002.22-4.035v-1.597a4.787 4.787 0 00-4.78-4.78 4.787 4.787 0 00-4.782 4.78v1.597a4.78 4.78 0 002.22 4.034v.125c0 .161-.116.3-.274.329l-2.135.395A4.467 4.467 0 000 31.928v8.924c0 .518.42.937.938.937h46.124c.518 0 .938-.42.938-.937v-8.924c0-2.154-1.537-4-3.654-4.392zM8.625 18.15c1.334 0 2.462.904 2.802 2.132l-1.055-.62a.937.937 0 00-1.193.207 3.278 3.278 0 01-2.518 1.175h-.942a2.91 2.91 0 012.906-2.894zm-2.894 4.77h.93a5.145 5.145 0 003.39-1.27l1.48.868v.135a2.91 2.91 0 01-2.906 2.907 2.91 2.91 0 01-2.894-2.64zm3.743 4.72l-.849.821-.85-.82c.035-.087.066-.176.09-.267a4.796 4.796 0 001.519 0c.024.091.055.18.09.267zm5.9 12.274H13.87v-6.461a.938.938 0 00-1.874 0v6.46H5.253v-6.46a.938.938 0 00-1.874 0v6.46H1.875v-7.986c0-1.25.892-2.321 2.12-2.549l2.135-.394c.092-.017.18-.042.267-.07l1.29 1.248v2.85a.938.938 0 001.876 0v-2.85l1.29-1.247c.086.027.175.052.266.069l2.136.394a2.592 2.592 0 012.12 2.549v7.986zM24 18.15c1.334 0 2.462.904 2.802 2.132l-1.055-.62a.937.937 0 00-1.193.207 3.278 3.278 0 01-2.518 1.175h-.942A2.91 2.91 0 0124 18.15zm-2.894 4.77h.93a5.145 5.145 0 003.39-1.27l1.48.868v.135A2.91 2.91 0 0124 25.56a2.91 2.91 0 01-2.894-2.64zm3.743 4.72l-.849.821-.85-.82c.035-.087.066-.176.09-.267a4.795 4.795 0 001.519 0c.024.091.055.18.09.267zm5.9 12.274h-1.504v-6.461a.938.938 0 00-1.875 0v6.46h-6.74v-6.46a.938.938 0 00-1.875 0v6.46H17.25v-7.986c0-1.25.892-2.321 2.12-2.549l2.135-.394c.092-.017.18-.042.267-.07l1.29 1.248v2.85a.938.938 0 001.875 0v-2.85l1.29-1.247c.087.027.175.052.267.069l2.136.394a2.592 2.592 0 012.12 2.549v7.986zm8.626-21.764a2.91 2.91 0 012.801 2.132l-1.054-.62a.937.937 0 00-1.193.207 3.278 3.278 0 01-2.518 1.175h-.942a2.91 2.91 0 012.906-2.894zm-2.894 4.77h.93a5.145 5.145 0 003.39-1.27l1.48.868v.135a2.91 2.91 0 01-2.906 2.907 2.91 2.91 0 01-2.894-2.64zm3.743 4.72l-.849.821-.85-.82c.035-.087.066-.176.09-.267a4.794 4.794 0 001.519 0c.024.091.055.18.09.267zm5.9 12.274h-1.502v-6.461a.938.938 0 00-1.876 0v6.46h-6.74v-6.46a.938.938 0 00-1.876 0v6.46h-1.504v-7.986c0-1.25.892-2.321 2.12-2.549l2.135-.394c.092-.017.18-.042.267-.07l1.523 1.472v2.625a.938.938 0 001.874 0V29.94l1.059-1.023c.086.027.175.052.266.069l2.136.394a2.592 2.592 0 012.12 2.549v7.986z" fill="#B10F1F"/><path d="M16.313 6.21a4.787 4.787 0 00-4.782 4.782v1.597a4.787 4.787 0 004.781 4.781 4.787 4.787 0 004.782-4.781v-1.597a4.787 4.787 0 00-4.782-4.781zm0 1.876c1.334 0 2.461.904 2.801 2.132l-1.054-.62a.937.937 0 00-1.194.207 3.278 3.278 0 01-2.518 1.175h-.942a2.91 2.91 0 012.906-2.894zm2.906 4.503a2.91 2.91 0 01-2.907 2.906 2.91 2.91 0 01-2.893-2.64h.93a5.15 5.15 0 003.39-1.27l1.48.869v.135zM31.688 6.21a4.787 4.787 0 00-4.782 4.782v1.597a4.787 4.787 0 004.782 4.781 4.787 4.787 0 004.78-4.781v-1.597a4.787 4.787 0 00-4.78-4.781zm0 1.876c1.334 0 2.461.904 2.801 2.132l-1.054-.62a.938.938 0 00-1.194.207 3.278 3.278 0 01-2.518 1.175h-.942a2.91 2.91 0 012.907-2.894zm2.906 4.503a2.91 2.91 0 01-2.907 2.906 2.91 2.91 0 01-2.893-2.64h.93a5.15 5.15 0 003.39-1.27l1.48.869v.135zM16.313 18.94a.938.938 0 00-.938.938v3.255a.938.938 0 001.875 0v-3.255a.938.938 0 00-.938-.937zm.662 6.525a.94.94 0 00-1.325 0 .944.944 0 00-.275.663c0 .247.1.489.275.663a.944.944 0 00.662.275c.247 0 .489-.1.663-.275a.945.945 0 00.275-.663c0-.246-.1-.488-.275-.663zm14.713-3.529a.938.938 0 00-.938.937v3.255a.938.938 0 001.875 0v-3.255a.938.938 0 00-.938-.937zm.662-2.721a.943.943 0 00-1.325 0 .941.941 0 00.663 1.6.94.94 0 00.937-.937c0-.247-.1-.488-.275-.663z" fill="#B10F1F"/></svg>