<svg width="31" height="31" viewBox="0 0 31 31" fill="none" xmlns="http://www.w3.org/2000/svg"><path d="M30.095 24.401l-2.297-12.998a5.613 5.613 0 00-5.535-4.644h-3.249a4.27 4.27 0 00.781-2.464A4.3 4.3 0 0015.5 0a4.3 4.3 0 00-4.295 4.295c0 .917.29 1.766.781 2.465H8.737a5.613 5.613 0 00-5.535 4.643L.906 24.4a5.608 5.608 0 001.228 4.59A5.608 5.608 0 006.441 31H24.56a5.608 5.608 0 004.306-2.009 5.608 5.608 0 001.229-4.59zM15.5 1.831a2.468 2.468 0 012.465 2.464A2.468 2.468 0 0115.5 6.76a2.468 2.468 0 01-2.464-2.465A2.468 2.468 0 0115.5 1.83zm11.964 25.984a3.782 3.782 0 01-2.904 1.355H6.44a3.782 3.782 0 01-2.904-1.355 3.782 3.782 0 01-.829-3.096l2.296-12.998A3.786 3.786 0 018.737 8.59h13.526a3.786 3.786 0 013.733 3.13l2.297 13a3.782 3.782 0 01-.83 3.095z" fill="#B10F1F"/><path d="M12.491 18.88l2.293-2.37a.915.915 0 00-1.315-1.273l-2.565 2.65v-2.013a.915.915 0 10-1.83 0v6.011a.915.915 0 001.83 0v-2.013l2.565 2.65a.912.912 0 001.294.021.915.915 0 00.021-1.294l-2.293-2.37zm8.519-.657h-1.373a.915.915 0 100 1.83h.444a1.1 1.1 0 01-2.184-.182V17.89a1.1 1.1 0 011.967-.676.915.915 0 001.443-1.126 2.913 2.913 0 00-2.31-1.128 2.933 2.933 0 00-2.93 2.93v1.982a2.933 2.933 0 002.93 2.93 2.933 2.933 0 002.929-2.93v-.732a.915.915 0 00-.915-.916z" fill="#B10F1F"/></svg>