<svg width="36" height="36" viewBox="0 0 36 36" fill="none" xmlns="http://www.w3.org/2000/svg"><g clip-path="url(#clip0)"><path d="M36 25.18c0-4.808-1.872-9.328-5.272-12.727-3.4-3.4-7.92-5.273-12.728-5.273a17.882 17.882 0 00-12.728 5.273C1.872 15.853 0 20.373 0 25.18v1.055h14.415a3.75 3.75 0 001.664 2.06 3.782 3.782 0 005.507-2.06H36V25.18zm-16.562.71a1.672 1.672 0 01-3.055-.432 1.658 1.658 0 01.179-1.266 1.659 1.659 0 011.44-.821c.296 0 .586.078.847.232.384.227.657.59.768 1.022.111.432.048.881-.179 1.265zm2.228-1.764l-.006-.027a3.757 3.757 0 00-.906-1.648l3.03-5.134-1.816-1.072-3.03 5.134a3.76 3.76 0 00-1.88.002 3.755 3.755 0 00-2.313 1.739 3.796 3.796 0 00-.413 1.006H2.144a15.76 15.76 0 011.6-5.959l2.342 1.353 1.054-1.827-2.34-1.35a16.021 16.021 0 014.362-4.362l1.35 2.34 1.827-1.055-1.353-2.342a15.772 15.772 0 015.96-1.599v2.707h2.109V9.325c2.126.14 4.14.7 5.958 1.599l-1.352 2.342 1.826 1.055 1.351-2.34a16.023 16.023 0 014.361 4.361l-2.34 1.35 1.055 1.828 2.342-1.353a15.772 15.772 0 011.6 5.959h-12.19z" fill="#B10F1F"/></g><defs><clipPath id="clip0"><path fill="#fff" d="M0 0h36v36H0z"/></clipPath></defs></svg>