<svg width="34" height="34" viewBox="0 0 34 34" fill="none" xmlns="http://www.w3.org/2000/svg"><path d="M6.973 17.996a2.992 2.992 0 00-2.989 2.988 2.992 2.992 0 002.989 2.989 2.992 2.992 0 002.988-2.989 2.992 2.992 0 00-2.988-2.988zm0 3.985a.997.997 0 010-1.993.997.997 0 010 1.992z" fill="#B10F1F"/><path d="M29.02 21.98h-1.168a2.993 2.993 0 00-2.817-1.992 2.993 2.993 0 00-2.817 1.992h-2.163a1.994 1.994 0 01-1.992-1.992c0-1.098.893-1.992 1.992-1.992h6.972c.315 0 .616-.154.8-.402l4.781-6.44A6.914 6.914 0 0034 6.972 6.98 6.98 0 0027.027 0a6.98 6.98 0 00-6.972 6.973c0 1.52.48 2.965 1.39 4.178l3.602 4.853h-4.992a3.989 3.989 0 00-3.985 3.984 3.989 3.989 0 003.985 3.985h2.163a2.993 2.993 0 002.817 1.992 2.993 2.993 0 002.817-1.992h1.168a2.992 2.992 0 012.988 2.988c0 1.656-1.369 3.055-2.989 3.055h-7.143a2.993 2.993 0 00-2.817-1.993 2.993 2.993 0 00-2.817 1.993h-7.29l3.602-4.851a6.914 6.914 0 001.391-4.18 6.98 6.98 0 00-6.972-6.973A6.98 6.98 0 000 20.984a6.91 6.91 0 001.389 4.177l4.77 6.426c.18.254.479.42.813.42h9.27A2.993 2.993 0 0019.059 34a2.993 2.993 0 002.816-1.992h7.145a4.91 4.91 0 003.53-1.5A5.049 5.049 0 0034 26.96a4.986 4.986 0 00-4.98-4.98zM23.043 9.962l-.003-.004a4.937 4.937 0 01-.993-2.985 4.986 4.986 0 014.98-4.98 4.986 4.986 0 014.98 4.98 4.94 4.94 0 01-.995 2.989l-3.985 5.367-3.984-5.367zm1.992 14.01a.997.997 0 010-1.992.997.997 0 010 1.993zM6.973 29.34l-3.988-5.37a4.936 4.936 0 01-.993-2.986 4.986 4.986 0 014.98-4.98 4.986 4.986 0 014.981 4.98 4.94 4.94 0 01-.996 2.99L6.973 29.34zm12.086 2.668a.997.997 0 010-1.992.997.997 0 010 1.992z" fill="#B10F1F"/><path d="M27.027 3.984a2.992 2.992 0 00-2.988 2.989 2.992 2.992 0 002.988 2.988 2.992 2.992 0 002.989-2.988 2.992 2.992 0 00-2.989-2.989zm0 3.985a.997.997 0 010-1.992.997.997 0 010 1.992z" fill="#B10F1F"/></svg>