<svg width="18" height="18" viewBox="0 0 18 18" fill="none" xmlns="http://www.w3.org/2000/svg"><path d="M15.933 13.58l-2.626-2.626a1.4 1.4 0 00-1.98 0l-.764.765A12.888 12.888 0 016.28 7.437l.838-.839a1.402 1.402 0 000-1.98L4.494 1.993a1.4 1.4 0 00-1.982.002L.862 3.657C.073 4.32-.205 5.408.155 6.44c1.848 5.293 6.111 9.557 11.405 11.404.996.348 2.018.088 2.669-.582a.558.558 0 00.027-.026l1.677-1.677a1.401 1.401 0 000-1.98zm-.836 1.143l-1.64 1.639a.577.577 0 00-.056.054c-.345.375-.9.504-1.451.311-4.957-1.73-8.948-5.72-10.678-10.677-.198-.567-.055-1.155.364-1.498a.593.593 0 00.046-.041L3.35 2.829a.216.216 0 01.307 0l2.626 2.626a.217.217 0 010 .307L5.12 6.923a.591.591 0 00-.097.71 14.07 14.07 0 005.343 5.342c.231.13.521.091.709-.097l1.088-1.088a.217.217 0 01.307 0l2.626 2.626a.217.217 0 010 .307zM9.453 4.617a.591.591 0 000 1.183 2.75 2.75 0 012.748 2.747.591.591 0 101.182 0 3.934 3.934 0 00-3.93-3.93z" fill="#fff"/><path d="M9.453 2.295a.591.591 0 000 1.183 5.074 5.074 0 015.069 5.068.591.591 0 001.183 0 6.258 6.258 0 00-6.252-6.251z" fill="#fff"/><path d="M15.497 2.503A8.49 8.49 0 009.453 0a.591.591 0 000 1.183c4.06 0 7.364 3.303 7.364 7.363a.591.591 0 101.183 0 8.49 8.49 0 00-2.503-6.043z" fill="#fff"/></svg>